<svg width="40" height="41" fill="none" xmlns="http://www.w3.org/2000/svg"><path d="M20 40.917c-11.046 0-20-9.14-20-20.417C0 9.224 8.954.083 20 .083S40 9.223 40 20.5c0 11.276-8.954 20.417-20 20.417z" fill="#D5D257"/><path d="M19.06 24.575c-1.54-.165-2.926-.555-4.114-1.511-.148-.118-.3-.233-.434-.367-.52-.51-.574-1.1-.16-1.705.35-.519.94-.658 1.556-.362.119.06.232.13.34.209 2.214 1.564 5.256 1.606 7.48.069.214-.178.46-.31.726-.388.246-.073.509-.06.747.038.237.097.436.274.563.501.326.545.32 1.076-.08 1.499a6.027 6.027 0 01-2.174 1.445c-.776.31-1.628.466-2.47.57.128.143.188.212.268.294 1.142 1.18 2.29 2.356 3.43 3.54.388.404.47.904.256 1.374-.234.51-.758.85-1.27.813a1.226 1.226 0 01-.804-.423c-.862-.892-1.74-1.768-2.586-2.677-.246-.265-.366-.214-.582.015a178.19 178.19 0 01-2.638 2.723c-.398.402-.872.476-1.334.245a1.37 1.37 0 01-.574-.521 1.41 1.41 0 01-.206-.757 1.29 1.29 0 01.42-.857l3.388-3.49c.074-.077.144-.159.252-.277z" fill="#000101"/><path d="M19.976 20.5a4.956 4.956 0 01-3.513-1.515 5.166 5.166 0 01.031-7.207 4.96 4.96 0 013.542-1.486c.66.003 1.313.14 1.92.402.609.263 1.16.645 1.622 1.125a5.184 5.184 0 011.436 3.642c-.014 2.79-2.274 5.05-5.038 5.039zm2.488-5.108a2.55 2.55 0 00-.185-.957 2.492 2.492 0 00-.53-.81 2.435 2.435 0 00-.796-.54 2.393 2.393 0 00-.937-.186 2.397 2.397 0 00-.944.189c-.3.126-.572.312-.8.547a2.497 2.497 0 00-.53.82 2.538 2.538 0 00-.178.965 2.536 2.536 0 00.728 1.762 2.397 2.397 0 001.738.713c.321 0 .64-.065.936-.19a2.43 2.43 0 00.792-.544 2.515 2.515 0 00.706-1.769z" fill="#000101"/></svg>