<svg width="42" height="43" fill="none" xmlns="http://www.w3.org/2000/svg"><path d="M21 .938C9.403.938 0 10.145 0 21.5s9.403 20.563 21 20.563S42 32.855 42 21.5C42 10.145 32.597.937 21 .937zm10.092 15.5c.014.215.014.44.014.66 0 6.738-5.24 14.5-14.817 14.5-2.953 0-5.69-.84-7.997-2.286.422.046.825.064 1.256.064 2.438 0 4.679-.808 6.464-2.175-2.287-.046-4.209-1.515-4.865-3.535.801.115 1.523.115 2.348-.091a5.223 5.223 0 01-2.996-1.773 5.03 5.03 0 01-1.17-3.23v-.065a5.3 5.3 0 002.348.648 5.14 5.14 0 01-1.703-1.836 5.017 5.017 0 01.09-4.976 14.725 14.725 0 004.788 3.783 15.027 15.027 0 005.946 1.546c-.735-3.465 1.908-6.27 5.086-6.27 1.5 0 2.85.615 3.802 1.607a10.419 10.419 0 003.305-1.226 5.095 5.095 0 01-2.288 2.805 10.47 10.47 0 003-.794 10.79 10.79 0 01-2.61 2.643z" fill="#D5D257"/></svg>