<svg width="41" height="43" fill="none" xmlns="http://www.w3.org/2000/svg"><path d="M20.5.86C9.63.86.82 10.1.82 21.5S9.63 42.14 20.5 42.14 40.18 32.9 40.18 21.5 31.37.86 20.5.86zm7.569 23.287s1.74 1.801 2.169 2.638c.012.017.018.034.022.043.174.307.215.546.13.724-.144.297-.636.443-.804.456H26.51c-.214 0-.66-.058-1.202-.45-.416-.305-.826-.806-1.226-1.294-.596-.726-1.113-1.354-1.633-1.354a.596.596 0 00-.195.032c-.394.133-.898.722-.898 2.292 0 .49-.37.772-.63.772H19.32c-.48 0-2.978-.177-5.192-2.625-2.71-3-5.15-9.015-5.17-9.071-.154-.39.163-.598.51-.598h3.106c.414 0 .55.264.643.499.111.273.517 1.359 1.183 2.58 1.08 1.99 1.743 2.8 2.274 2.8a.594.594 0 00.285-.078c.693-.404.563-2.995.533-3.533 0-.1-.002-1.159-.357-1.666-.254-.368-.687-.507-.95-.559.107-.154.247-.278.409-.363.475-.25 1.332-.286 2.183-.286h.474c.922.013 1.16.075 1.494.163.677.17.69.628.631 2.195-.018.445-.037.949-.037 1.542 0 .129-.006.267-.006.413-.02.797-.045 1.703.492 2.074.07.047.151.071.234.071.187 0 .748 0 2.27-2.737a21.46 21.46 0 001.22-2.739c.03-.056.12-.228.227-.294a.524.524 0 01.254-.063h3.65c.399 0 .671.063.723.224.09.256-.017 1.036-1.684 3.403l-.744 1.03c-1.51 2.077-1.51 2.183.095 3.758z" fill="#D5D257"/></svg>