<svg width="139" height="31" fill="none" xmlns="http://www.w3.org/2000/svg"><path d="M40.197 1.252V0h-8.64v1.252h4.174l-6.303 22.071-6.094-22.071h3.756V0H16.112v1.252h3.423l-6.261 22.071L7.18 1.252h3.715V0H0v1.252h2.755L10.895 31h1.377l7.639-26.744.208-.96L27.09 31h1.378L36.94 1.252h3.256zm3.09 6.258c-4.467 0-7.055 2.754-7.097 7.886v4.38c.042 5.133 2.63 7.886 7.054 7.886 4.425 0 7.055-2.753 7.055-7.885v-4.381c.041-5.132-2.547-7.886-7.013-7.886zm3.63 14.478c0 4.214-1.21 4.84-3.63 4.84-2.422 0-3.632-.626-3.632-4.757v-8.928c0-4.13 1.21-4.757 3.631-4.757s3.632.626 3.632 4.84v8.762zM83.443 7.135h-1.085L76.303 26.41h-1.879v.834h5.677v-.835H77.39l1.837-5.882h5.134l1.628 5.883H83.86v.834h6.846v-.835h-1.837L83.442 7.136zm-3.966 12.642l2.38-7.677h.208l2.087 7.677h-4.675zM71.42 26.41V8.386h1.88v-.834h-5.26l-5.552 15.646-5.3-15.646H51.97v.834h1.836V26.41h-1.711v.835h5.468v-.835h-2.588V9.304l6.178 18.525h.876L68.54 9.471l-.042 16.898h-2.003v.834h7.012v-.834l-2.087.041zm29.93-18.024h2.797v13.018l-8.224-13.81v-.042h-4.8v.834h1.712V26.41h-1.712v.835h5.427v-.835h-2.84V10.098l10.436 17.565v-.041.041h.876V8.386h1.837v-.834h-5.51v.834zm7.639 13.435c-1.044 0-1.879.96-1.879 2.086 0 1.168.835 2.086 1.879 2.086 1.043 0 1.878-.96 1.878-2.086 0-1.168-.835-2.086-1.878-2.086zm13.566-10.64c-.042-.041-.042-.083-.084-.124a.775.775 0 00-.292-.25c-.25-.168-.626-.293-1.169-.293-1.419 0-2.087.71-2.713 1.669-.417.626-.835 1.46-1.085 1.961 0-.25-.084-.793-.376-1.627-.417-1.127-.793-1.502-.876-1.544h-3.34v.834h2.129v13.018h-2.129v.835h7.597v-.835h-3.005V15.73a17.75 17.75 0 011.586-2.963c.751-.96 1.169-1.252 1.586-1.252.209 0 .209.877.209 1.294v.25c0 1.878.584 2.378 1.252 2.378.71 0 1.252-.458 1.252-2.378-.041-.71-.208-1.418-.542-1.877.041.041 0 0 0 0zm14.776 13.56c-.375 0-.417-.375-.417-.417V10.89h-2.505v11.098c-.041.042-1.669 3.17-3.923 3.17-1.169 0-1.545-.625-1.545-1.334V10.89h-4.717v.834h2.213V22.53s-.084 3.463 3.715 3.463c2.546 0 4.007-2.336 4.257-2.753v.083c-.041 1.335.418 2.211 1.086 2.253H139v-.834h-1.67z" fill="#D5D257"/></svg>